<svg width="800" height="465" viewBox="0 0 800 465" fill="none" xmlns="http://www.w3.org/2000/svg">
<path d="M798.916 451.579C787.629 455.603 775.267 455.482 764.046 451.219C752.523 446.841 743.001 438.397 737.276 427.481L737.26 427.449L737.239 427.42L622.239 268.387L622.234 268.38L605.567 246.147L605.163 245.608L604.764 246.151L471.331 427.617L471.307 427.649L471.289 427.685C465.911 438.138 456.909 446.275 445.968 450.574C435.235 454.791 423.357 455.032 412.473 451.268L584.001 221.146L584.227 220.842L583.997 220.542L424.483 12.7222C435.699 8.84464 447.902 8.86649 459.114 12.7963C470.541 16.8018 480.239 24.6226 486.574 34.9417L486.586 34.9602L486.599 34.9776L605.799 195.978L606.198 196.518L606.601 195.979L726.467 35.6461L726.491 35.6148L726.509 35.5801C731.928 25.3148 740.93 17.3985 751.803 13.3361C762.47 9.35099 774.208 9.3471 784.867 13.311L723.204 95.1421L723.201 95.1458L639.166 204.538C636.795 206.662 634.897 209.261 633.596 212.166C632.288 215.085 631.612 218.248 631.612 221.447C631.612 224.646 632.288 227.808 633.596 230.728C634.897 233.632 636.794 236.23 639.163 238.353L798.916 451.579ZM0.500255 218.323L0.508743 218.318L0.557128 218.079L14.5534 148.931C52.9424 12.4842 209.338 -44.214 316.892 40.2067C379.749 89.5973 395.567 159.484 392.553 238.413H37.2004H36.7204L36.7008 238.893C33.8125 309.732 57.9292 366.606 99.1841 400.301C140.446 434.001 198.773 444.45 264.159 422.588L264.17 422.584C285.403 414.941 304.409 402.15 319.484 385.358C334.557 368.569 345.23 348.305 350.549 326.38C353.983 315.339 358.488 309.01 364.606 306.175C370.664 303.369 378.443 303.918 388.65 307.002C385.138 333.855 375.614 359.572 360.784 382.237C345.88 405.017 326.004 424.121 302.652 438.113C264.061 459.22 219.784 467.585 176.151 462.013C132.523 456.442 91.7732 437.221 59.7259 407.098C28.0459 371.433 8.89758 326.387 5.20039 278.827C5.19693 272.633 3.54291 266.732 1.96975 261.119C1.53964 259.585 1.11558 258.072 0.73294 256.581C0.57251 243.829 0.494947 231.076 0.500255 218.323ZM37.1865 208.67L37.3247 208.947H37.6337H359.434H359.944L359.934 208.437C357.93 105.703 293.074 32.6834 206.439 32.0134C158.275 31.3454 116.941 48.8459 87.1196 79.7747C57.3015 110.701 39.0216 155.023 36.9008 207.96L36.8956 208.089L36.9532 208.204L37.1865 208.67Z" fill="white" stroke="black"/>
</svg>
