<svg width="800" height="800" viewBox="0 0 800 800" fill="none" xmlns="http://www.w3.org/2000/svg">
<path fill-rule="evenodd" clip-rule="evenodd" d="M447.14 127.614C421.107 101.579 378.893 101.579 352.86 127.614L330.474 150L382.733 202.258C388.24 200.785 394.027 200 400 200C436.82 200 466.667 229.848 466.667 266.667C466.667 272.639 465.88 278.427 464.41 283.935L532.733 352.257C538.24 350.787 544.027 350 550 350C586.82 350 616.667 379.847 616.667 416.667C616.667 453.487 586.82 483.333 550 483.333C513.18 483.333 483.333 453.487 483.333 416.667C483.333 410.693 484.12 404.907 485.59 399.4L433.333 347.14V508.92C453.26 520.447 466.667 541.99 466.667 566.667C466.667 603.487 436.82 633.333 400 633.333C363.18 633.333 333.333 603.487 333.333 566.667C333.333 541.99 346.74 520.447 366.667 508.92V324.415C346.74 312.888 333.333 291.343 333.333 266.667C333.333 260.695 334.12 254.906 335.59 249.399L283.333 197.14L127.614 352.86C101.579 378.893 101.579 421.107 127.614 447.14L352.86 672.387C378.893 698.42 421.107 698.42 447.14 672.387L672.387 447.14C698.42 421.107 698.42 378.893 672.387 352.86L447.14 127.614ZM305.719 80.4737C357.79 28.4038 442.21 28.404 494.28 80.474L719.527 305.719C771.597 357.79 771.597 442.21 719.527 494.28L494.28 719.527C442.21 771.597 357.79 771.597 305.719 719.527L80.4737 494.28C28.4039 442.21 28.404 357.79 80.474 305.719L305.719 80.4737Z" fill="white"/>
</svg>
