<svg width="800" height="800" viewBox="0 0 800 800" fill="none" xmlns="http://www.w3.org/2000/svg">
<path fill-rule="evenodd" clip-rule="evenodd" d="M0.795943 0C-0.0964246 0.129941 -0.0306712 1.20548 0.0335166 2.28258C0.0335166 267.907 0.0335166 533.492 0.0335166 799.11C265.182 800.887 533.588 799.364 800 799.871C800 533.243 800 266.627 800 0C533.608 0 267.189 0 0.795943 0ZM406.095 707.11C387.587 725.77 358.38 736.759 322.449 736.759C263.517 736.759 230.797 708.046 209.91 668.327C230.015 655.489 250.562 643.087 271.506 631.074C280.047 654.968 308.901 681.83 341.459 665.293C362.098 654.805 359.715 623.007 359.715 588.496C359.715 516.836 359.715 434.166 359.715 369.518C359.65 368.441 359.585 367.366 360.47 367.236C385.06 367.236 409.649 367.236 434.233 367.236C434.233 424.829 434.233 489.979 434.233 551.234C434.233 617.924 438.998 673.953 406.095 707.11ZM736.119 640.965C731.933 703.406 680.944 736.563 612.174 736.759C544.758 736.953 501.608 706.993 475.293 660.724C494.212 647.704 515.65 637.214 535.371 624.995C551.152 649.67 578.482 673.387 619.017 669.852C644.271 667.65 673.586 647.065 657.037 615.868C649.01 600.745 629.614 593.063 612.174 585.457C556.828 561.31 491.895 539.162 498.106 452.397C500.183 423.413 513.53 403.043 530.809 388.529C548.517 373.656 572.233 363.688 603.809 362.68C661.154 360.844 692.612 386.351 714.07 421.989C695.809 435.909 675.692 447.99 655.516 460.003C648.896 439.658 616.935 419.834 590.12 431.871C577.926 437.34 566.968 453.415 573.394 472.926C579.123 490.328 602.496 499.852 621.298 507.907C678.209 532.267 741.81 556.075 736.119 640.965Z" fill="white"/>
</svg>
