<svg width="800" height="800" viewBox="0 0 800 800" fill="none" xmlns="http://www.w3.org/2000/svg">
<path d="M395.525 579.625C395.525 579.625 395.525 320.6 404.125 320.625C410.775 320.625 419.425 654.75 419.425 654.75C407.525 653.35 395.525 599.775 395.525 579.625ZM562.225 323.625C539.25 223.225 488.925 136.9 419.525 70.275L419.35 70.125C410.9 57.225 403.175 42.425 396.975 26.825L396.375 25.125C396.4 25.625 396.4 26.225 396.4 26.825C396.4 40.95 390.075 53.575 380.1 62.05L380.025 62.1C290.675 137.95 233.825 249.725 231.95 374.8V375.125C231.925 376.675 231.925 378.5 231.925 380.325C231.925 504.25 291.55 614.25 383.675 683.2L384.65 683.9L386.825 685.475C390.842 715.208 394.275 745.008 397.125 774.875H412.15C416.3 737.6 421.9 704.975 429.225 672.975L428.075 678.95C437.975 672.075 446.625 664.95 454.7 657.225L454.625 657.3C524.65 592.375 568.35 499.875 568.35 397.2C568.35 395.675 568.35 394.175 568.325 392.65V392.875C568.25 368.35 566.025 344.375 561.8 321.1L562.175 323.575L562.225 323.625Z" fill="white"/>
</svg>
