<svg width="800" height="800" viewBox="0 0 800 800" fill="none" xmlns="http://www.w3.org/2000/svg">
<g clip-path="url(#clip0_1_14)">
<path d="M400.186 328.896C413.923 328.896 427.352 332.965 438.783 340.588C450.214 348.211 459.137 359.049 464.427 371.737C469.717 384.424 471.138 398.395 468.512 411.889C465.886 425.384 459.329 437.799 449.668 447.572C440.006 457.345 427.672 464.039 414.218 466.811C400.763 469.583 386.79 468.309 374.058 463.149C361.326 457.99 350.403 449.176 342.665 437.817C334.927 426.458 330.719 413.061 330.572 399.314C330.523 390.115 332.285 380.997 335.757 372.48C339.229 363.963 344.343 356.214 350.807 349.675C357.272 343.136 364.959 337.935 373.432 334.37C381.904 330.805 390.995 328.944 400.186 328.896ZM227.827 697.38C251.28 711.538 302.28 689.928 361.843 634.041C341.935 611.399 323.174 587.772 305.631 563.25C275.604 559.884 245.78 554.909 216.287 548.347C197.301 628.079 204.374 682.849 227.827 697.38ZM254.258 483.517L243.462 464.516C239.254 474.981 235.649 485.679 232.666 496.558C242.718 498.793 253.886 500.656 265.426 502.519L254.258 483.517ZM497.72 455.201L527.873 399.314L497.72 343.426C486.552 323.679 474.639 306.168 463.844 288.657C443.741 287.539 422.522 287.539 400.186 287.539C377.85 287.539 356.631 287.539 336.529 287.539C325.733 305.05 313.82 322.562 302.652 342.309L272.499 399.314L302.652 455.201C313.82 474.948 325.733 492.459 336.529 509.971C356.631 509.971 377.85 509.971 400.186 509.971C422.522 509.971 443.741 509.971 463.844 509.971C474.639 492.459 486.552 474.948 497.72 455.201ZM400.186 204.826C393.113 213.023 385.668 221.592 378.222 231.652H422.15C414.705 221.592 407.259 213.023 400.186 204.826ZM400.186 593.802C407.259 585.605 414.705 577.036 422.15 566.976H378.222C385.668 577.036 393.113 585.605 400.186 593.802ZM572.173 101.248C549.093 87.0897 497.72 108.699 438.53 164.587C458.437 187.229 477.198 210.855 494.742 235.377C524.741 238.251 554.565 242.728 584.086 248.79C603.071 169.058 595.998 114.288 572.173 99.7575M546.115 313.62L556.91 332.621C561.119 322.156 564.723 311.458 567.706 300.579C557.655 298.344 546.487 296.481 534.947 294.618L546.115 313.62ZM600.093 52.8121C654.816 84.109 660.773 166.45 637.32 262.576C731.875 290.52 800 337.092 800 399.686C800 462.28 731.875 508.853 637.32 536.797C660.4 632.923 654.444 715.264 600.093 746.56C545.742 777.857 471.661 742.09 400.186 673.907C328.711 742.09 254.63 777.857 199.907 746.56C145.184 715.264 139.6 634.786 162.68 536.797C68.1247 508.853 0 462.28 0 399.686C0 337.092 68.1247 290.147 162.68 262.203C139.6 166.077 145.556 83.7364 199.907 52.4395C254.258 21.1426 328.711 56.9105 400.186 125.093C471.661 56.9105 545.742 21.1426 600.093 52.4395M589.297 399.314C602.226 426.741 613.659 454.85 623.546 483.517C701.722 460.045 745.649 426.512 745.649 399.314C745.649 372.115 700.605 338.583 623.546 315.11C613.659 343.777 602.226 371.886 589.297 399.314ZM211.075 399.314C198.146 371.886 186.713 343.777 176.826 315.11C98.6506 338.583 54.7231 372.115 54.7231 399.314C54.7231 426.512 99.7674 460.045 176.826 483.517C186.713 454.85 198.146 426.741 211.075 399.314ZM546.115 483.517L534.947 502.519C546.487 502.519 557.655 498.793 567.706 496.558C564.723 485.679 561.119 474.981 556.91 464.516L546.115 483.517ZM437.413 634.041C496.603 689.928 549.093 711.538 571.056 697.38C593.02 683.222 601.954 629.57 582.969 548.347C553.448 554.409 523.624 558.886 493.625 561.76C476.122 586.79 457.361 610.915 437.413 634.041ZM254.258 315.11L265.426 296.108C253.886 296.108 242.718 299.834 232.666 302.07C235.649 312.948 239.254 323.647 243.462 334.112L254.258 315.11ZM362.96 164.587C302.652 108.699 251.28 87.0897 227.827 101.248C204.374 115.406 197.301 169.058 216.287 250.281C245.808 244.219 275.632 239.741 305.631 236.868C323.496 211.811 342.631 187.686 362.96 164.587Z" fill="white"/>
</g>
<defs>
<clipPath id="clip0_1_14">
<rect width="800" height="800" fill="white"/>
</clipPath>
</defs>
</svg>
