<svg width="758" height="800" viewBox="0 0 758 800" fill="none" xmlns="http://www.w3.org/2000/svg">
<g clip-path="url(#clip0_1_17)">
<path d="M376.435 153.846C418.932 153.846 453.383 119.407 453.383 76.9231C453.383 34.4396 418.932 1.52588e-05 376.435 1.52588e-05C333.938 1.52588e-05 299.488 34.4396 299.488 76.9231C299.488 119.407 333.938 153.846 376.435 153.846Z" fill="white"/>
<path d="M376.435 800C418.932 800 453.383 765.56 453.383 723.077C453.383 680.593 418.932 646.154 376.435 646.154C333.938 646.154 299.488 680.593 299.488 723.077C299.488 765.56 333.938 800 376.435 800Z" fill="white"/>
<path d="M381.555 143.59C366.175 266.667 520.07 235.897 520.07 323.077C520.07 374.359 459.764 388.359 381.555 394.872C319.997 400 237.93 400 237.93 482.051C237.93 564.103 402.084 538.462 381.555 656.41M280.323 229.262C280.323 386.072 517.834 416.841 517.834 563.826" stroke="white" stroke-width="33"/>
</g>
<defs>
<clipPath id="clip0_1_17">
<rect width="758" height="800" fill="white"/>
</clipPath>
</defs>
</svg>
