<svg width="800" height="760" viewBox="0 0 800 760" fill="none" xmlns="http://www.w3.org/2000/svg">
<path d="M554.425 530.125C583.45 527.65 605.85 502.125 604.425 471.65C602.85 441.175 577.85 416.725 547.525 416.725H545.425C514.05 417.75 489.45 444.2 490.5 475.7C491.525 491.725 498.025 504.6 507.025 514.1C472 582.075 419.65 631.975 340.1 674C286.725 701.875 230.325 712.425 175.4 704.875C129.425 698.5 93.5 677.95 71.5 644.975C38.525 594.975 35.525 541.2 63.025 487.175C83.05 448.25 113.025 419.7 132.925 405.775C128 392.775 122 370.9 119 354.35C-28.9 460.225 -13.8 605.15 31.125 673.525C64.6 723.525 132.925 755.425 207.8 755.425C227.875 755.425 248.825 754 269.275 748.9C399.25 723.9 497.55 646.025 553.9 531.2L554.425 530.125ZM732.675 405.275C655.35 314.375 541.4 264.375 411.6 264.375H394.525C386.2 246 366.65 234.45 344.65 234.45H343.225C311.725 234.45 287.225 261.525 288.25 292.925C289.325 322.85 314.675 347.85 345.15 347.85H347.65C370.15 346.825 389.575 332.875 397.65 312.825H416.125C493.1 312.825 565.9 335.35 632.425 379.25C683.2 412.675 719.8 456.725 740.225 509.175C758.2 552 757.15 594.075 738.65 629.1C710.275 683.9 662.225 712.925 598.95 712.925C558.975 712.925 520.05 700.425 499.975 691.45C488 701.35 467.95 717.875 453.475 727.925C497.5 747.825 541.9 759.3 584.875 759.3C682.275 759.3 754.675 704.475 782.15 651.5C812.075 591.6 809.625 490.675 733.175 404.225L732.675 405.275ZM216.275 548.1C217.35 578.025 242.7 603.025 273.3 603.025H275.275C307.3 602 331.65 575.55 330.2 544.05C330.2 514.075 304.3 489.075 273.825 489.075H271.725C269.8 489.075 266.8 489.075 264.2 490.15C222.8 420.225 205.325 345.225 211.825 264.35C215.75 203.425 235.8 150.55 271.725 106.55C301.7 69.175 358.05 50.55 396.6 49.65C504.425 47.55 549.475 182.05 552.875 235.45L602.875 250.425C591.275 86.625 489.475 0.699997 392.075 0.699997C300.675 0.699997 216.275 67.1 182.3 164.5C135.925 294.475 166.4 419.2 223.3 519.2C218.375 525.575 215.375 537.175 216.275 548.1Z" fill="white"/>
</svg>
