<svg width="800" height="800" viewBox="0 0 800 800" fill="none" xmlns="http://www.w3.org/2000/svg">
<path d="M214.05 381.4C273.75 402.384 336.732 412.486 400 411.225C463.27 412.478 526.251 402.368 585.95 381.375C632.55 363.2 649.075 343 649.075 331.375V242.5C632.783 253.41 615.304 262.435 596.975 269.4C533.811 292.018 467.082 303.044 400 301.95C332.923 303.024 266.201 292.015 203.025 269.45C184.687 262.484 167.206 253.442 150.925 242.5V331.25C150.925 343.1 167.5 363.2 214.05 381.4Z" fill="white"/>
<path d="M214.05 549.025C235.14 557.068 256.888 563.266 279.05 567.55C318.901 575.259 359.411 579.052 400 578.875C440.589 579.061 481.098 575.276 520.95 567.575C543.112 563.291 564.86 557.093 585.95 549.05C632.55 530.875 649.075 510.675 649.075 499.05V414.3C635.608 422.404 621.453 429.305 606.775 434.925C540.419 458.419 470.38 469.792 400 468.5C329.612 469.752 259.573 458.337 193.225 434.8C178.553 429.166 164.4 422.265 150.925 414.175V499C150.925 510.65 167.5 530.775 214.05 549.025Z" fill="white"/>
<path d="M400 750C537.5 750 649.075 706.4 649.075 652.65V581.725C636.824 589.11 623.989 595.481 610.7 600.775L606.775 602.35C540.432 625.914 470.392 637.354 400 636.125C329.605 637.39 259.559 625.948 193.225 602.35C191.875 601.85 190.575 601.275 189.3 600.775C176.011 595.481 163.176 589.11 150.925 581.725V652.65C150.925 706.4 262.5 750 400 750Z" fill="white"/>
<path d="M400 244.7C537.56 244.7 649.075 201.115 649.075 147.35C649.075 93.5851 537.56 50 400 50C262.44 50 150.925 93.5851 150.925 147.35C150.925 201.115 262.44 244.7 400 244.7Z" fill="white"/>
</svg>
