<svg width="800" height="800" viewBox="0 0 800 800" fill="none" xmlns="http://www.w3.org/2000/svg">
<path fill-rule="evenodd" clip-rule="evenodd" d="M400 201.2C311.1 201.2 255.567 245.367 233.333 333.733C266.667 289.567 305.567 273 350 284.033C375.367 290.333 393.5 308.633 413.533 328.867C446.233 361.833 484.067 400 566.667 400C655.567 400 711.1 355.833 733.333 267.467C700 311.633 661.133 328.2 616.667 317.167C591.3 310.867 573.167 292.567 553.1 272.333C520.433 239.333 482.633 201.2 400 201.2ZM233.333 400C144.433 400 88.9001 444.167 66.6667 532.533C100 488.333 138.9 471.8 183.333 482.833C208.7 489.133 226.833 507.433 246.9 527.667C279.567 560.633 317.4 598.8 400.033 598.8C488.933 598.8 544.467 554.633 566.7 466.267C533.367 510.433 494.467 527 450.033 515.967C424.667 509.667 406.533 491.367 386.5 471.133C353.767 438.167 315.933 400 233.333 400Z" fill="white"/>
</svg>
