<svg width="800" height="800" viewBox="0 0 800 800" fill="none" xmlns="http://www.w3.org/2000/svg">
<g clip-path="url(#clip0_1_40)">
<path fill-rule="evenodd" clip-rule="evenodd" d="M138.11 209.524C196.988 128.711 292.36 76.1905 400 76.1905C499.002 76.1905 587.63 120.621 647.025 190.631C594.046 172.625 536.316 222.748 555.082 281.903L579.966 360.343L512.651 526.728L440.663 347.691L415.745 285.714H438.095C459.135 285.714 476.19 268.659 476.19 247.619C476.19 226.58 459.135 209.524 438.095 209.524H359.368H323.81C302.77 209.524 285.714 226.58 285.714 247.619C285.714 268.659 302.77 285.714 323.81 285.714H333.623L364.133 361.589L293.332 530.187L190.652 285.714H209.524C230.563 285.714 247.619 268.659 247.619 247.619C247.619 226.58 230.563 209.524 209.524 209.524H138.11ZM102.363 272.257C85.5188 311.45 76.1905 354.636 76.1905 400C76.1905 578.834 221.165 723.81 400 723.81C578.834 723.81 723.81 578.834 723.81 400C723.81 353.566 714.038 309.417 696.434 269.494C695.642 275.46 694.095 281.401 691.756 287.184L655.745 376.19L547.859 642.857C542.03 657.261 528.042 666.682 512.503 666.667C496.964 666.651 482.994 657.2 477.2 642.785L404.552 462.118L328.457 643.322C322.518 657.467 308.675 666.667 293.335 666.667C277.995 666.667 264.151 657.467 258.211 643.322L102.363 272.257ZM400 0C179.086 0 0 179.086 0 400C0 620.914 179.086 800 400 800C620.914 800 800 620.914 800 400C800 179.086 620.914 0 400 0Z" fill="white"/>
</g>
<defs>
<clipPath id="clip0_1_40">
<rect width="800" height="800" fill="white"/>
</clipPath>
</defs>
</svg>
